<svg width="156" height="112" viewBox="0 0 156 112" fill="none" xmlns="http://www.w3.org/2000/svg">
<path d="M104.65 3.92C104.65 1.75 102.9 0 100.73 0H79.42C77.26 0 75.5 1.75 75.5 3.92C75.49 16.6 75.48 29.28 75.47 41.97L104.65 33.95V3.92Z" fill="white"/>
<path d="M51 47.93C51.07 33.27 51.13 18.6 51.2 3.93999C51.21 1.76999 49.45 0 47.28 0H25.99C23.83 0 22.07 1.75 22.07 3.92V56.66C31.74 54 41.4 51.34 51.07 48.68C51.02 48.44 51 48.19 51 47.93Z" fill="white"/>
<path d="M149.38 24.21C134.47 28.54 119.56 32.87 104.65 37.2C94.54 40.14 84.43 43.07 74.32 46C67.65 47.94 60.98 49.88 54.31 51.82C43.57 54.94 32.82 58.06 22.07 61.18C17.16 62.6 12.24 64.03 7.32999 65.46C7.01999 65.55 6.70001 65.64 6.39001 65.73C4.26001 77.23 2.13 88.72 0 100.21C7.36 96.53 14.71 92.85 22.07 89.18V107.09C22.07 109.26 23.83 111.01 25.99 111.01H47.3C49.46 111.01 51.22 109.26 51.22 107.09V74.6C59.32 70.56 67.41 66.51 75.51 62.46V107.09C75.51 109.26 77.26 111.01 79.43 111.01H100.73C102.9 111.01 104.65 109.26 104.65 107.09V47.9C121.67 39.39 138.69 30.88 155.71 22.37C153.6 22.98 151.49 23.6 149.38 24.21Z" fill="white"/>
</svg>
