<svg width="95" height="23" viewBox="0 0 95 23" fill="none" xmlns="http://www.w3.org/2000/svg">
<path d="M25.59 17.31L23.51 13.54C24.62 13.14 25.56 12.4 26.32 11.34C27.08 10.27 27.46 9.00999 27.46 7.54999C27.46 5.54999 26.83 3.88999 25.56 2.57999C25.17 2.17999 24.73 1.83999 24.26 1.54999C24.26 1.54999 24.25 1.54999 24.24 1.54999C23.18 0.929988 21.91 0.619995 20.44 0.619995H16.85C15.09 0.619995 13.83 0.990011 13.08 1.73001C12.61 2.19001 12.29 2.82 12.12 3.63C12.01 4.11 11.96 4.65999 11.96 5.26999V22.27H16.18V14.24H19.22L23.45 22.27H23.86L25.19 18.47L25.37 17.94L25.59 17.31ZM22.37 9.79001C21.79 10.41 21.06 10.72 20.16 10.72H16.18V6.31C16.18 5.03 16.81 4.39001 18.07 4.39001H20.16C20.58 4.39001 20.97 4.45001 21.31 4.57001C21.73 4.71001 22.09 4.93 22.4 5.25C22.96 5.81 23.23 6.56001 23.23 7.48001C23.23 8.40001 22.94 9.17001 22.37 9.79001Z" fill="#DAA520"/>
<path d="M36.03 0.98999C35.69 0.73999 35.25 0.619995 34.71 0.619995C34.51 0.619995 34.32 0.640013 34.15 0.670013C33.84 0.740013 33.56 0.849989 33.32 1.01999C32.94 1.27999 32.61 1.76001 32.3 2.45001L26.88 17.94L26.24 19.77L25.37 22.27H29.78L30.97 18.53H38.23L39.45 22.27H43.86L36.92 2.45001C36.66 1.72001 36.36 1.22999 36.03 0.98999ZM32.03 14.97L34.12 8.26999L34.71 6.39999L37.26 14.97H32.03Z" fill="#DAA520"/>
<path d="M60.66 6.76001C60.46 5.16001 59.8 3.8 58.69 2.69C57.31 1.31 55.41 0.619995 52.98 0.619995H44.55V16.58C44.55 18.73 45.1301 20.21 46.2801 21.03C47.4401 21.85 49.57 22.26 52.67 22.26C55.31 22.26 57.31 21.57 58.69 20.2C59.52 19.37 60.08 18.44 60.36 17.43C60.65 16.42 60.83 15.17 60.91 13.69L60.88 11.35C60.88 9.42001 60.81 7.90001 60.66 6.76001ZM56.49 15.22C56.37 16.05 56.13 16.69 55.74 17.16C55.01 18.05 53.94 18.5 52.54 18.5C51.13 18.5 50.15 18.34 49.6 18.04C49.05 17.73 48.7801 17.18 48.7801 16.36V4.39001H52.58C53.96 4.39001 55.01 4.83 55.74 5.72C56.13 6.19 56.37 6.82 56.49 7.59C56.6 8.37 56.6501 9.64001 56.6501 11.38C56.6501 13.12 56.6 14.4 56.49 15.22Z" fill="#DAA520"/>
<path d="M62.48 16.55C62.48 18.68 62.97 20.16 63.95 21C64.93 21.84 66.64 22.26 69.08 22.26H76.74V18.5H69.38C68.37 18.5 67.6601 18.33 67.2801 18.01C66.8901 17.69 66.7101 17.09 66.7101 16.24V14.24H73.22C73.55 13.06 73.8801 11.87 74.2101 10.68H73.63H66.73V9.45999H66.7101V4.39001H76.74V0.619995H62.48V16.55Z" fill="#DAA520"/>
<path d="M89.86 13.54C90.97 13.13 91.91 12.4 92.67 11.34C93.42 10.27 93.81 9.00999 93.81 7.54999C93.81 5.53999 93.17 3.88999 91.91 2.57999C90.64 1.26999 88.9301 0.619995 86.7801 0.619995H83.19C81.43 0.619995 80.17 0.990011 79.43 1.73001C78.67 2.47001 78.3 3.64999 78.3 5.26999V22.26H82.5301V14.24H85.57L89.79 22.26H94.69L89.86 13.54ZM88.72 9.79001C88.14 10.4 87.4 10.71 86.51 10.71H82.5301V6.31C82.5301 5.03 83.15 4.39001 84.41 4.39001H86.51C87.44 4.39001 88.19 4.66999 88.74 5.23999C89.3 5.80999 89.58 6.55 89.58 7.47C89.58 8.4 89.29 9.17001 88.72 9.79001Z" fill="#DAA520"/>
<path d="M11.96 0.619995H0.0200195V4.45001H4.43002C4.43002 10.39 4.43004 16.33 4.42004 22.27H8.64005C8.64005 22.1 8.60004 10.88 8.60004 10.72C8.60004 10.65 8.59002 7.59 8.58002 4.87V4.45001H10.68V4.29999C10.68 3.68999 10.73 3.12999 10.84 2.64999C11.02 1.84999 11.34 1.21 11.8 0.75C11.85 0.7 11.9 0.649995 11.96 0.619995Z" fill="#DAA520"/>
</svg>
